# xmcd
#
# Track frame offsets:
#	150
#	17442
#	35056
#	52664
#	70562
#	85922
#	103504
#	120140
#	138684
#	156934
#	174070
#	193147
#	207387
#
# Disc length: 3000 seconds
#
# Revision: 0
# Processed by: cddbd v1.5.2PL0 Copyright (c) Steve Scherf et al.
# Submitted via: EasyCDDAExtractor 11.0.0.1
#
DISCID=a00bb60d
DTITLE=ΣΧΟΙΝΑΣ ΔΙΟΝΥΣΗΣ - ΤΑ ΑΠΟΛΥΤΩΣ ΑΠΑΡΑΙΤΗΤΑ CD1
DYEAR=2001
DGENRE=ΛΑΪΚΑ
TTITLE0=ΠΑΡΑΜΟΝΕΣ ΤΗΣ ΜΟΝΑΞΙΑΣ
TTITLE1=ΑΛΛΑ ΛΟΓΙΑ ΜΗ ΛΕΣ
TTITLE2=ΚΙΤΡΙΝΑ ΦΥΛΛΑ
TTITLE3=ΠΟΥ ΝΑ ΕΙΣΑΙ
TTITLE4=ΤΑ ΑΠΟΛΥΤΩΣ ΑΠΑΡΑΙΤΗΤΑ
TTITLE5=ΒΡΗΚΕΣ ΤΗ ΣΤΙΓΜΗ
TTITLE6=ΑΓΑΠΟΥΛΑ ΜΟΥ
TTITLE7=ΟΤΙ ΚΑΙ ΝΑ ΠΕΙΣ
TTITLE8=ΣΑ ΝΑ ΕΙΣΑΙ ΕΔΩ
TTITLE9=Ε ΚΑΙ
TTITLE10=ΓΙΑ ΣΕΝΑ
TTITLE11=ΕΝΑΣ ΑΠΟ ΤΟΥΣ ΔΥΟ
TTITLE12=ΒΡΗΚΕΣ ΤΗ ΣΤΙΓΜΗ NRG Lounge Mix
EXTD=
EXTT0=
EXTT1=
EXTT2=
EXTT3=
EXTT4=
EXTT5=
EXTT6=
EXTT7=
EXTT8=
EXTT9=
EXTT10=
EXTT11=
EXTT12=
PLAYORDER=
